<svg xmlns="http://www.w3.org/2000/svg" viewBox="0 0 232 425"><defs><style>.cls-1{fill:#c62828;}.cls-2{fill:#fff;}</style></defs><title>event-marker</title><g id="Layer_2" data-name="Layer 2"><g id="event-marker"><path class="cls-1" d="M232,116A116,116,0,1,0,76.16,225L118,425l42.2-201.73A116,116,0,0,0,232,116Z"/><circle class="cls-2" cx="116" cy="116" r="79"/><path class="cls-1" d="M74.5,154.54a8.89,8.89,0,0,0,8.89,8.89h65.22a8.89,8.89,0,0,0,8.89-8.89v-50.4h-83ZM86.36,119a3,3,0,0,1,3-3h17.79a3,3,0,0,1,3,3v17.79a3,3,0,0,1-3,3H89.32a3,3,0,0,1-3-3Zm62.25-38.53h-8.9V71.54a3,3,0,0,0-3-3h-5.93a3,3,0,0,0-3,3v8.89H104.14V71.54a3,3,0,0,0-3-3H95.25a3,3,0,0,0-3,3v8.89h-8.9a8.89,8.89,0,0,0-8.89,8.89v8.89h83V89.32A8.89,8.89,0,0,0,148.61,80.43Z"/></g></g></svg>