<?xml version="1.0" encoding="utf-8"?>
<!-- Generator: Adobe Illustrator 23.0.1, SVG Export Plug-In . SVG Version: 6.00 Build 0)  -->
<svg version="1.1" id="Layer_1" xmlns="http://www.w3.org/2000/svg" xmlns:xlink="http://www.w3.org/1999/xlink" x="0px" y="0px"
	 viewBox="0 0 512 512" style="enable-background:new 0 0 512 512;" xml:space="preserve">
<path d="M174.5,114.9L144,62l-28.6,110.5l110,30.5l-30.5-52.9c57.2-33,131.4-12.4,165,45.8c10.2,17.6,15.5,36.9,16.4,56.4l39.9,11.1
	c1.1-30-5.8-60.1-21.6-87.5C349.8,98.4,250.8,70.9,174.5,114.9z M317.1,361.8c-57.2,33-131.4,12.4-165-45.8
	c-10.2-17.6-15.5-36.9-16.4-56.4l-39.9-11.1c-1.6,29.2,5.8,60.1,21.6,87.5c44.8,77.6,143.8,105.1,220,61.1L368,450l28.6-110.5
	l-110-30.5L317.1,361.8z"/>
</svg>
