<svg xmlns="http://www.w3.org/2000/svg" viewBox="0 0 232 425"><defs><style>.cls-1{fill:#fff;}.cls-2{fill:#007888;}.cls-3,.cls-4{fill:none;stroke:#fff;stroke-linecap:round;stroke-linejoin:round;}.cls-3{stroke-width:11.75px;}.cls-4{stroke-width:7.83px;}</style></defs><title>observation-marker</title><g id="Layer_2" data-name="Layer 2"><g id="observation-marker"><path class="cls-1" d="M79.19,222.36l-1.83-.67a112.51,112.51,0,1,1,81.5-1.65l-1.71.7L118,407.91Z"/><path class="cls-2" d="M116,7a109,109,0,0,1,41.53,209.8l-3.42,1.42-.76,3.62L118,390.81,83,223.54l-.8-3.8-3.65-1.34A109,109,0,0,1,116,7m0-7A116,116,0,0,0,76.16,225L118,425l42.2-201.73A116,116,0,0,0,116,0Z"/><circle class="cls-2" cx="116" cy="116" r="79"/><line class="cls-3" x1="92.5" y1="88.58" x2="163" y2="88.58"/><line class="cls-3" x1="92.5" y1="116" x2="163" y2="116"/><line class="cls-3" x1="92.5" y1="143.42" x2="163" y2="143.42"/><circle class="cls-4" cx="72.92" cy="88.58" r="3.92"/><circle class="cls-4" cx="72.92" cy="116" r="3.92"/><circle class="cls-4" cx="72.92" cy="143.42" r="3.92"/></g></g></svg>